/* XPM */
static char *wall31667057135[] = {
/* columns rows colors chars-per-pixel */
"64 64 104 2 ",
"   c #862D00",
".  c #853400",
"X  c #8B3500",
"o  c #863903",
"O  c #8C3A02",
"+  c #863C0A",
"@  c #8C3E0A",
"#  c #933500",
"$  c #983700",
"%  c #943B01",
"&  c #9C3C00",
"*  c #953E08",
"=  c #A13D00",
"-  c #944104",
";  c #9D4103",
":  c #94430B",
">  c #9C450A",
",  c #9E490C",
"<  c #954612",
"1  c #984712",
"2  c #9D4A12",
"3  c #A34302",
"4  c #A94604",
"5  c #A64905",
"6  c #AB4A06",
"7  c #A44609",
"8  c #AE4709",
"9  c #A44A0C",
"0  c #AB4C0B",
"q  c #B44D05",
"w  c #B14E0C",
"e  c #AE510D",
"r  c #B65005",
"t  c #BD5307",
"y  c #B3520E",
"u  c #BB540D",
"i  c #BE580E",
"p  c #A44D12",
"a  c #AC4F12",
"s  c #A44F18",
"d  c #B34E10",
"f  c #A75114",
"g  c #AD5214",
"h  c #A75119",
"j  c #AC551A",
"k  c #AE581D",
"l  c #B55413",
"z  c #BA5613",
"x  c #B65915",
"c  c #BC5915",
"v  c #B35619",
"b  c #BC5619",
"n  c #B55A1C",
"m  c #BC5B1A",
"M  c #BD611C",
"N  c #B35C22",
"B  c #BC5E21",
"V  c #B56124",
"C  c #BC6123",
"Z  c #B66128",
"A  c #BC642A",
"S  c #BE682D",
"D  c #C1560D",
"F  c #C2590E",
"G  c #C15711",
"H  c #C25B14",
"J  c #C85D16",
"K  c #C15D1B",
"L  c #C85D19",
"P  c #C66116",
"I  c #C86017",
"U  c #C3611E",
"Y  c #CA631D",
"T  c #C45F21",
"R  c #C46423",
"E  c #C96623",
"W  c #C66925",
"Q  c #CB6926",
"!  c #C36629",
"~  c #CA672A",
"^  c #C5692B",
"/  c #CC6C2B",
"(  c #D26C25",
")  c #D26D2B",
"_  c #D86F2B",
"`  c #CF712D",
"'  c #D4712E",
"]  c #D9722D",
"[  c #C56B31",
"{  c #CB6E31",
"}  c #D26E31",
"|  c #CC7133",
" . c #CF7539",
".. c #D37332",
"X. c #D97534",
"o. c #D57933",
"O. c #DC7935",
"+. c #D47739",
"@. c #DA7638",
"#. c #D5783A",
"$. c #DB7A39",
"%. c #E17A37",
"&. c #E07A3A",
"*. c #DB7F40",
/* pixels */
". : o . O % X % X # X X % % O o . * O X % % # # $ % X X * : @ . . * O X % % # # # X X X % * O . X % X X % % X X X   . O X O @ o ",
"X 2 j k B Z n C C n B n n n j p O h k j N n v v n n n v k k p < X 2 p 2 h l a a g g a g h s 1 O * p p p g g 0 a l 9 g j p 2 : O ",
"X N |  .#.+.| ..) ' / / / ! B j > V { | | ..) ' / ` / { { ^ N p p A  .| +.+.....` ' ..` { ^ N p j ! { / ../ Q W / R ^ [ ! N h * ",
"% Z #. .` W Y Y P R R U R R b 0 7 ! +...) / Q / Y R E R Q R n 9 a { +...) / E E U Y W R R R g 7 m ..@...' ) Q ( / R Q / / ! v $ ",
"$ C +.Q m z u z i i G z m K z y 5 Q ] W J K i K u u z c c M l 0 0 / ' Y H z u z u c c c m z e 3 c ) ] Y P K z H H z z m m M l $ ",
"$ R ` U z z z J z H F F G K z y 5 Q ] U z z u G G z u c c K i 0 y ` O.E K G G H J K G c c c z 6 m ) ( K G z i H z u u z z n g $ ",
"& C / R c P K H H H G z c K z y 5 Q ' U z K m c H K c c K K x 0 6 W ) m i z z c c c z i z z 0 3 K ) ( z z H H P J z K c c m l - ",
"% n ^ m m c z y i c K z c c z 0 3 W ) m c c c z x z z z c m y 5 5 W / c c M c c z x z m m m l 3 m / Q z u K z F z c m c v n g % ",
"% p k g g g l l c y 0 0 l l g 7 ; 0 l g 0 0 g v n 0 g l l e 0 & 3 0 g e a g g g 0 9 a g 0 g e & v n n l y z x z y x v g j v p % ",
". % - % $ % ; & ; 3 3 ; ; ; % X X ; ; ; ; ; ; % % % % & $ % ; X # % ; & & ; % % ; ; > $ $ % & X O % ; & ; ; 3 $ & 3 7 % & : % X ",
". : 2 , 7 9 7 & X 3 a g n n n g l g g g N k h > % > p p 9 g g e 0 g g f g h > - % p g p 9 g g 0 9 g g g a 9 & # 3 g v g h p 1 O ",
"% j S [ ^ ^ C e & l / +.+.#.+.+. ...| | { { A k 9 A | |  .| / / | ` / ^ [ ! N p p A | |  .+. ./ | | | { Q R l ; n W | | [ A j : ",
"% k | ` / W T z 3 P O.] / W W ! R Y R R ! C n p 7 ^ $.+...' Q Q Q Q Q U W A v 7 v +.$.+...` E E R ! ! Y E Y z 4 R R W ! ! Z a X ",
"$ n ! M z z z y = P ] ( m c z l u z c c c l l e 7 | ..M c K u K z z z z c m y 3 v +...m K c u K z z z x z G q = Y P c y n c a & ",
"& z R c u z G t = G _ ( K G H z F F H H c U m y 5 ' ' u c i r D D F D z K K c 0 y ' Q q i F D J H K z i F D q 4 I Y z i m c l 3 ",
"% l R c c L H t = H ( Y i i c G F F F i z z y 6 3 ' ] z J J t F F F G i i c y 0 w o.) u K H t F u G G z F D r 6 D G J K c m 0 & ",
"% g M n x M z 6 ; u Q U x x m m l c c l M x 0 6 e m R M c x x z K z z c c K z 3 z U E m y z z K c l z c x x r 3 y z G K B v 9 $ ",
"- , j e g l y 5 & 6 x z e e g l y M v e x y 0 6 5 l M x x x m x m z z b l l w = 0 l z z l z m m K z z l x e e ; y u z d d a 2 % ",
"X % ; - % & % $ # $ ; & ; ; ; $ % ; & $ & & % % # & ; & & 3 ; & & = 3 3 = 3 & # # & = = 3 3 = & = = 3 ; ; ; - $ = = = = ; ; % . ",
"% 7 g v n v z c y c z y z x e ; # 3 0 0 y l e e 0 l y e e y 5 $ $ 0 l l l z l z d l l z l w 3 $ = 0 z l l x l l z u d z v g , O ",
"& h ! +.$.O.X.O...' ) / ) ..R 0 0 R ../ ....` ` ` ..` / / Q c 0 w ) X...@.+.) X.....) ) ~ E l 3 b } X...o.o.` o.X.] } ) { C h - ",
"& v { +.{ E R U L U L K R ~ b 4 6 R o.{ ` / W W R R ! U C ! l 3 l ..X.~ / W m R K T K R R K d = K @.+.W ` W M P T L T T T N , . ",
"> B #.} B z z z b G H z m R v 7 0 Q ..E R K c n z m m c m m z 4 z X...m T c w m l z l b c n w = b @.) c M M e l z u b H C V f % ",
"$ B } ! b z K b b H H z b m b w 0 Q ..R c b l c n c b l z m m 0 l +.E l c b l T m m n c c b w 3 b ..E g M M e M T G b m n n 9 O ",
"& B  .~ b v m H K H H b b z l 7 3 ) } m m K z n m l m m d m m 3 l ) / b c m l b K m c n m m l 4 K / U x M x y c b z b T B N p # ",
"* v ! T b z b b u z b H m c l 0 0 / / m b m b c z l z m z K m 4 l E R l m K m K l z b c K m w 3 m / M M M M l M K G G T b k p % ",
"$ 9 v v l l z y w u d u z l 0 3 3 z z 0 l z z z b w z b l y w = 4 b l 0 l m l l l v z z l l 4 & d m x e e e e y d G d G a a > % ",
"X * & = & = 3 3 = 3 = & = 3 3 & $ = = = 4 4 = 3 3 & = 3 3 = = $ & 3 3 = 3 6 = $ 3 4 4 = = = & $ = = ; ; 5 ; ; & = = = = 3 > O . ",
"$ > f f g y 0 3 $ 6 l x c U R C R K K K m z w = & 3 8 d z b b m z z l z z z 0 $ & 0 z l l m m b z d b c M e 5 ; 8 G K K v v > O ",
"; N | |  .` R z 3 K O.$.$.$.#...X.) ) } ) ~ T w 6 E X.X.$.X.) ....~ ..} / E K 4 l Q @.@.X.$.@.) X.} ..+.W R M ; T } } } { ! k - ",
"O k | S C W M 0 $ M o...W M V x m w H K b K K 8 = ) &.) / E K K R c T R m m l = z / @.} E E R m ~ m R R M x y = L E T K n n p O ",
"% V { M g M m e & M ] / x x n M b z K b l K T 8 4 _ @.L b b b L m l z K l z m 7 v Q ) m l z m b K l l m l m z 3 T T K z n n j - ",
". N [ v g B n z ; M ..W l n B n K H c c H b u w 4 ' ) c L z u R z n c c n R l 4 z ..~ l m K l K m B b c x x 5 ; U P b b B v p O ",
"O N ! N n B x 0 & m | / B n B c z c z u c H z w q ) ( H K b y K z m b b m K l 4 w ) E l K m z K b b n c M x e 5 c m K K T N p % ",
"% h N j n m y 0 = z R M m n n l m c c z b H z q 4 Y Y z K c z m m m m z m m l 3 l / R z m K l m K K m c M M y 5 c H K K B n p O ",
"# 7 7 ; 7 0 3 4 $ 3 6 4 4 0 0 9 0 q q 5 8 0 3 & $ y y 0 y y q w w d w 0 0 d 4 $ 3 l y 0 l d 0 0 d d 0 9 e 6 3 $ 6 6 8 4 9 9 ; - ",
"X ; ; 3 4 3 & 3 3 4 3 3 3 5 3 % $ & 4 3 3 5 4 & & 4 4 3 4 6 3 & $ = 3 = = 3 = $ # = = & 3 4 3 & = = 3 3 ; 3 ; & $ = = = & ; % o ",
"# a C ! Q Q U U P E Y U Y U z 4 & w m K K E E P U E P K m c q = 4 l K m m K m z m m K b z l 6 & 8 d m M M M M M G G T T B v ; . ",
"$ C #.@.$.O.] ] ) ( ( ) ' Q P y y Q O.o...o.o.' o.` ) / ` Q m 6 m / $.@...) ..) +.' } ) E T d = T ) @.@.o.` o.' } X.} ..| A h O ",
"; ! #.` R c c H G F z u c c x 0 0 Q O.' P U m c c z c m c M z = z / $...R R T R m b m R K m l = b { @...M M M M K K b c B M 9 - ",
"% ! +.c z K K y H H H z c c y e 4 o...l c T c R n z c c c b l 6 z $.~ l m l l b n m m z z z w 4 z o.W e M x 0 M d L G b v B s   ",
"% ! +.! z K P z i H z H m P c y 8 ' ' x c m l v c M m m B m l 0 c $.~ z R c c m b z c c m m l 7 K O.` M M M x M d L T b B N a % ",
"& C | R z x c c z z c c c c z 0 6 Q / z m m l l x z x x c x 0 3 l ..K l m b x b l l l v m m w 3 b } W y y x e M z z b b n j > X ",
"> n W n m z c K c K c z m M x 0 3 M C l c n c l n z l l l n l 4 l Q m z K m m c K m b m K m y 3 b ~ M x x M M P L b G T B j , - ",
"# > 9 ; 9 9 3 5 3 8 6 5 4 0 4 ; $ 3 3 & > 5 3 3 3 7 7 3 4 5 3 & 3 l 4 0 w 0 y 4 w 0 w 8 8 6 3 & 4 d w 9 6 e 5 6 d d 8 8 d 7 - O ",
"  & : ; 7 7 = & # & 3 3 4 9 9 7 > 5 7 3 3 4 3 & # $ ; 3 ; 3 3 ; = 4 = 4 4 3 3 $ & = 3 3 3 3 3 = 3 4 3 3 3 3 ; % = = = 4 7 7 % . ",
"% k A A ! ! m l ; y R / ^ ^ ^ ^ / W Q / W ! C g 3 l R W ! ! R R K R K R T m z 3 7 z K R R R R R R K K R M M w $ u L E T C C j - ",
"O V  .{ / / m z 3 z ` $.@.+...../ R / o./ W m 0 9 m ..O.@.o.o.X...) / ] / U U 3 y U ..O.X.] ] ] X.Q / ' ' Q z = K ( X.) Q W g O ",
"# n / m z z c t = L %._ Y c c z F F G u z z z y 3 Q $.) Y I F t t F F i i c y q y Q O.' P P H i u K H c c i r 4 P I P z x M g - ",
"& n W c z c z z = K ' E i z c z F F K i z c x l 4 W ] Y K G G J F F P i c c z 0 6 P _ Y F F F t G c c F P F r 4 H P c i c U y & ",
"& v Z v n m z y 3 K ( U z y m c u z c z c m x 0 9 W ` m y i u H i u u y c c d 7 e R ` W i z K G z x c c z c q 3 i c c x n n g % ",
"% j N n m C l y 3 K ' Q M m n m m c m z m n v 0 9 W | R m m c z x i c x m M v a g C / M x i m c M M m x m m y 3 m M M n V M f % ",
"% h k g n n e 0 & e M m l l n g x z n l l v g 9 7 B ! n B m l l c z m n B B g 9 f n C n l v b c n B n v n b 0 3 b n N v n k h : ",
"X > > % ; ; ; ; $ ; ; 3 ; > 7 7 ; 3 4 > > 7 3 & $ 7 7 & 7 0 6 9 ; 5 0 9 p = $ # ; 7 9 9 0 a 0 7 7 7 7 3 7 7 = # & = = * > > * X ",
". > 9 7 9 0 0 q 6 6 0 6 0 e 0 ; $ & 9 a 0 0 9 5 3 a 7 3 0 0 3 & $ & 7 7 7 9 7 = 7 = 3 3 7 0 & # & 3 7 7 7 8 4 3 7 7 = 9 7 > % X ",
"% j ~ / +.' / ) ' ) / ( ` W m e 3 z E Q / Q Q W W / R R Q Q z 4 w b E / / }  .{ } { ~ ! ~ ~ l 4 g n T R U R E E K T ! T B B a * ",
"$ R $.O.X.( Y ( I Y E Y ( Y m y 3 U X.X.] ] ) ] Q E E E Q E c 0 4 E X.X.X.] ~ ) E E E E E E b 8 z ) %.@.%.%.] X.) ) ( ~ ) T h = ",
"$ M X.) Y J G H D F D u F i u q w ( %.( P L G z F G G u H z u 4 w ) X.( L K H H K H G b H H w 3 K ] _ ( L J F G L J K G K b 0 $ ",
"$ M ' U z u u t F H F F z P z u 6 / o.U z u u u P H z i H K x e 8 / ) K u b b u b u u y b b l 4 K _ ) G D G t t G z u z H m d $ ",
"$ A ..K z z H z F u D t z z z q 3 Q ) n z c K J F z z c x z l 0 7 / ..m z H K G H H c c b m l 0 b ) ( z z G H c G H d z m m a & ",
"% C ^ C c B U m c m c c c n l g 9 [ { B l m n c z n c n k k j p f { | M v c m z x x x n n n f > B { Q z c c c c c c x x B n p % ",
"O j N k v n l l c n n n n M v 9 : N N j j j v l l n n j k h h 2 : k V j g v l g e e g g j j 2 : j B B v n x l l l v v k n k 2 O ",
"+ < < : 2 1 : 7 : > ; ; ; > : O . < < > 2 > > 2 % - - : : : : o o < : - , , > , ; , , : , < : - : p , , 9 9 , e 9 , 9 , 2 2 : + ",
"+ @ o o O X X O % % X X o @ O O + + + o @ O . % % O O O + + + + + : o o O o . O o - o o o - o . o O . O O . . O O - O o o o O o "
};
