/* XPM */
static char *edbd832dbde748f88222345e1c00b487oo97Ql4L7vc6LHAJ[] = {
/* columns rows colors chars-per-pixel */
"50 50 154 2 ",
"   c None",
".  c #FE990D",
"X  c #FE9A0C",
"o  c #FE9A0D",
"O  c #FE9F0D",
"+  c #FE9F0E",
"@  c #FEA20D",
"#  c #FEA30E",
"$  c #FDA50E",
"%  c #FDA60E",
"&  c #FEAB0F",
"*  c #FDAC0F",
"=  c #FDAD0F",
"-  c #FEAC0F",
";  c #FEAD0F",
":  c #FDAE0F",
">  c #FDAF0F",
",  c #FDB00F",
"<  c #FDB10F",
"1  c #FEAE10",
"2  c #FDB210",
"3  c #FDB310",
"4  c #FDB311",
"5  c #FEB310",
"6  c #FDB410",
"7  c #FDB411",
"8  c #FDB511",
"9  c #FEB410",
"0  c #FEB510",
"q  c #FDB611",
"w  c #FDB712",
"e  c #FDB713",
"r  c #FEB612",
"t  c #FEB811",
"y  c #FEB812",
"u  c #FEB912",
"i  c #FEB913",
"p  c #FEBB12",
"a  c #FEBA14",
"s  c #FEBB14",
"d  c #FEBB15",
"f  c #FEBC14",
"g  c #FEBD15",
"h  c #FEBF14",
"j  c #FEBE15",
"k  c #FEBC17",
"l  c #FEBF16",
"z  c #FEC114",
"x  c #FEC215",
"c  c #FEC017",
"v  c #FEC117",
"b  c #FEC217",
"n  c #FEC317",
"m  c #FFC317",
"M  c #FEC617",
"N  c #FEC018",
"B  c #FEC118",
"V  c #FEC019",
"C  c #FEC218",
"Z  c #FFC11A",
"A  c #FFC21A",
"S  c #FEC418",
"D  c #FEC419",
"F  c #FEC519",
"G  c #FFC519",
"H  c #FFC619",
"J  c #FEC41B",
"K  c #FFC71A",
"L  c #FEC61B",
"P  c #FEC71B",
"I  c #FEC21E",
"U  c #FEC61D",
"Y  c #FEC71E",
"T  c #FEC919",
"R  c #FFC81A",
"E  c #FFC91A",
"W  c #FFCA1B",
"Q  c #FECD1C",
"!  c #FECD1D",
"~  c #FFCE1D",
"^  c #FFCD1E",
"/  c #FED01C",
"(  c #FFD11E",
")  c #FFD11F",
"_  c #FFD21F",
"`  c #FFD420",
"'  c #FFD421",
"]  c #FFD521",
"[  c #FFD722",
"{  c #FFD723",
"}  c #FFD025",
"|  c #FED527",
" . c #FFD626",
".. c #FFD822",
"X. c #FFD923",
"o. c #FFDA23",
"O. c #FFD924",
"+. c #FFDB24",
"@. c #FFDC24",
"#. c #FFDC25",
"$. c #FFDD25",
"%. c #FFDE26",
"&. c #FFD428",
"*. c #FFD829",
"=. c #FFDD28",
"-. c #FFDC2C",
";. c #FFD534",
":. c #FEDD39",
">. c #FFE026",
",. c #FFE027",
"<. c #FFE127",
"1. c #FFE128",
"2. c #FFE228",
"3. c #FFE328",
"4. c #FFE229",
"5. c #FFE429",
"6. c #FFE529",
"7. c #FFE62A",
"8. c #FFE02E",
"9. c #FFE72E",
"0. c #FFE82B",
"q. c #FFE82C",
"w. c #FFE92C",
"e. c #FFE82E",
"r. c #FFE733",
"t. c #FFE830",
"y. c #FFEA30",
"u. c #FFE932",
"i. c #FFE934",
"p. c #FFEB34",
"a. c #FFEB36",
"s. c #FFEC34",
"d. c #FFEC35",
"f. c #FFED36",
"g. c #FFEC37",
"h. c #FFED37",
"j. c #FFEA39",
"k. c #FFED38",
"l. c #FFF451",
"z. c #FFF552",
"x. c #FFF559",
"c. c #FFF75A",
"v. c #FFF75B",
"b. c #FFF060",
"n. c #FFFA64",
"m. c #FFFA65",
"M. c #FFFA6F",
"N. c #FFE091",
"B. c #FFE994",
"V. c #FFF991",
"C. c #FFFAB7",
"Z. c #FFFEEB",
"A. c #FFFEF9",
"S. c #FFFFFD",
/* pixels */
"                                                                                                    ",
"                                                                                                    ",
"                                                                                                    ",
"                                                                                                    ",
"                                                                                                    ",
"                                                                                                    ",
"                                                                                                    ",
"                                                                                                    ",
"                                                                                                    ",
"                                                                                                    ",
"                                                                                                    ",
"                                                                                                    ",
"                                                                                                    ",
"                                                                                                    ",
"                                                l.q.                                                ",
"                                          V.m.m.v.y.q.q.5.                                          ",
"                                        A.Z.b.;.U l ~ 1.0.5.                                        ",
"                                      C.S.N.U &.i.1.] S ] 0.1.                                      ",
"                                      M.B.&.i.k.i.7.7.5.~ o.5.                                      ",
"                                    v.x.} k.k.h.y.1.5.1.<.W <.<.                                    ",
"                                    l.:.i.h.h.y.1.1.5.1.5.<./ <.                                    ",
"                                    j.-.h.i.r.1.A W <.1.<.<./ <.                                    ",
"                                    =.$.<.f O.O.= < $.] A $.O.$.                                    ",
"                                  o.O.$.$.f ` $.w i $.~ A $.$.O.@.                                  ",
"                                  Q o._ v v S ] 1 2 ] A v v / o./                                   ",
"                                  z T < < A < & = < = = v < w S f                                   ",
"                                  i v i = W < < < < < < v < f z i                                   ",
"                                    f S < v w 2 w < < i v < M i                                     ",
"                                    w v w f W S W S S W f w A <                                     ",
"                                    = i W < < w w 2 w 2 < O.i =                                     ",
"                                    @ < f A 2 < < < < w | A < @                                     ",
"                                      $ 2 f S f 2 w U -.U < $                                       ",
"                                        $ < 2 f S S U w 1 $                                         ",
"                                        . $ = = 2 1 = 1 @ .                                         ",
"                                            . O $ @ O .                                             ",
"                                                . .                                                 ",
"                                                                                                    ",
"                                                                                                    ",
"                                                                                                    ",
"                                                                                                    ",
"                                                                                                    ",
"                                                                                                    ",
"                                                                                                    ",
"                                                                                                    ",
"                                                                                                    ",
"                                                                                                    ",
"                                                                                                    ",
"                                                                                                    ",
"                                                                                                    ",
"                                                                                                    "
};
