/* XPM */
static char *_022d79eb3cc4b8a878dfcbf5ece8e5cpNFZERCuXd8bOtxp[] = {
/* columns rows colors chars-per-pixel */
"50 50 192 2 ",
"   c None",
".  c #020102",
"X  c #0A0A0C",
"o  c #0F0F12",
"O  c #131216",
"+  c #15151A",
"@  c #18161A",
"#  c #19181D",
"$  c #17181E",
"%  c #25191B",
"&  c #3A1F1E",
"*  c #1C1C23",
"=  c #2E1E20",
"-  c #22242B",
";  c #2B2C34",
":  c #282B35",
">  c #2D323D",
",  c #30333D",
"<  c #3B2F34",
"1  c #441C15",
"2  c #7A291B",
"3  c #4B2A27",
"4  c #512C27",
"5  c #572B27",
"6  c #56362D",
"7  c #5B352C",
"8  c #5C362B",
"9  c #4A363B",
"0  c #573836",
"q  c #622D24",
"w  c #63392E",
"e  c #6D392C",
"r  c #74392C",
"t  c #693D35",
"y  c #763F32",
"u  c #5A463A",
"i  c #6F443B",
"p  c #6C4B3E",
"a  c #7A4539",
"s  c #323642",
"d  c #353945",
"f  c #383D4A",
"g  c #373C49",
"h  c #573E41",
"j  c #4E3F48",
"k  c #613E40",
"l  c #3A404E",
"z  c #3E4455",
"x  c #594449",
"c  c #434A5C",
"v  c #454A5A",
"b  c #5B4D56",
"n  c #59565A",
"m  c #7B4C4B",
"M  c #6A5749",
"N  c #695F50",
"B  c #7C5252",
"V  c #6C504E",
"C  c #566252",
"Z  c #5C6757",
"A  c #686959",
"S  c #746C5D",
"D  c #716558",
"F  c #62705F",
"G  c #464F61",
"H  c #4B5364",
"J  c #4B5466",
"K  c #525463",
"L  c #565868",
"P  c #6C5F6A",
"I  c #7C666B",
"U  c #6C7362",
"Y  c #6E796A",
"T  c #697664",
"R  c #7C7463",
"E  c #7C7C6A",
"W  c #737A69",
"Q  c #6F716D",
"!  c #882F1F",
"~  c #862E1E",
"^  c #8B301F",
"/  c #8D3121",
"(  c #823627",
")  c #933322",
"_  c #9A3624",
"`  c #9D3826",
"'  c #923A2B",
"]  c #9C3C2C",
"[  c #853C31",
"{  c #A23A26",
"}  c #A53C29",
"|  c #AB3D29",
" . c #884639",
".. c #9A4031",
"X. c #9A4C3A",
"o. c #934739",
"O. c #AD412D",
"+. c #A4402E",
"@. c #B4412B",
"#. c #BA442E",
"$. c #A44233",
"%. c #AD4431",
"&. c #A94A3C",
"*. c #A24A3B",
"=. c #B34632",
"-. c #B34937",
";. c #BD4B35",
":. c #B64E3D",
">. c #BE4D3A",
",. c #BD503D",
"<. c #C14730",
"1. c #C44A33",
"2. c #CC4C34",
"3. c #C54E39",
"4. c #D04D35",
"5. c #C2513C",
"6. c #CE513A",
"7. c #D1533D",
"8. c #C1472F",
"9. c #884C40",
"0. c #854740",
"q. c #944F41",
"w. c #87564A",
"e. c #955347",
"r. c #8A5855",
"t. c #A35A49",
"y. c #B55242",
"u. c #BE594A",
"i. c #AE5F58",
"p. c #B65D52",
"a. c #B16258",
"s. c #827E6C",
"d. c #887A69",
"f. c #8F6665",
"g. c #A17B67",
"h. c #C45543",
"j. c #CC5743",
"k. c #CB5C4A",
"l. c #D25741",
"z. c #D45A44",
"x. c #D65D4A",
"c. c #D85F4B",
"v. c #D9614E",
"b. c #DB6552",
"n. c #DD6857",
"m. c #DE6B5A",
"M. c #C8675B",
"N. c #E06D5E",
"B. c #DD6E60",
"V. c #E27264",
"C. c #75816F",
"Z. c #758270",
"A. c #7A8674",
"S. c #7D8976",
"D. c #7E8A78",
"F. c #7B837A",
"G. c #81806F",
"H. c #8B826E",
"J. c #92826E",
"K. c #838372",
"L. c #828D7A",
"P. c #878977",
"I. c #84917D",
"U. c #8A9682",
"Y. c #8B9984",
"T. c #8D998E",
"R. c #929B87",
"E. c #939E8A",
"W. c #939683",
"Q. c #8E9990",
"!. c #96A18D",
"~. c #99A38E",
"^. c #97A490",
"/. c #99A691",
"(. c #9DAA95",
"). c #A0AD97",
"_. c #A2AE9A",
"`. c #A6B29C",
"'. c #A8B49F",
"]. c #ABB6A1",
"[. c #ACB8A2",
"{. c #AFBAA8",
"}. c #B0BBA7",
"|. c #B3BEAA",
" X c #B6C1AE",
".X c #B8C2AE",
"XX c #BBC5B2",
"oX c #BBC5B3",
"OX c #C3CCBB",
"+X c #C0C7B7",
"@X c #C7CFC0",
"#X c #CCD4C4",
/* pixels */
"                                                                                                    ",
"                                                                                                    ",
"                                          ~.].`.`._._.`.].{._.U.                                    ",
"                        ~.OX+X|.].`.XX/.C '. X X|.|.|.{.[.[.|.[.T I.[.oXXX X}.                      ",
"            oX#XOX#X XC D.oX[.[.[.[.[._.F _.[.[.[.[.[.[.`.].[._.T D. X[. X.X+X.XF _._.              ",
"          #X X}.[.[. XC.F '.[.[.[.[.[._.F _.[.[.[.[.[.[.].(.]./.C.Y.'.'.'.'.`.A.A.+X.X X].          ",
"          .X[.[.[.[.[.).Z ~.[.[.[.[.[.(.Z `.].[.[.[.[.[.[.]./.E.T E.[.[.}.'.L.C (.[.[.[.|./.        ",
"          '.[.[.[.[.[.'.Y D.[.[.[.[.[./.C _.].'.'.'.[.[.[.[.).I.C./.[.[.'.!.C L.].[.[.[.[._.        ",
"          ].[.[.[.[.[.[.!.Z (.'.[.(.W.R 4 s.s.d.G.H.H.J.s.d.d.0 S E.).`.).Z.I.[.[.[.[.[.`.!.        ",
"        E.'.].[.[.'._._.~.u S R w.y ] } :.| 2 | ;.e.;.1.2 j.1.@.{ ( X.X.t C.[.[.[.[.[.[._.R.        ",
"          T W I.(.].`.w $.O.h.v.j.{ 4.r.h 4.) 4.2.w.$.1.2 2.f.9 8.| 2.2.u.>.g.'.[.[._.~.L.L.        ",
"        E.OX X(.I.A.A ~ l.1.I  .l.} 2.l.2.l.) 2.6.b.2.#.~ 4.B.;.1.| 2.:.b O.2.M Y.~.{.OX#X          ",
"        E.#X|. X{.].G.` l.6.u.-.z.} 2.l.2.l._ 2.x.l.2.@.{ 2.N.2.8.| 2.x.8.2.4.i +X+XoXoXOX          ",
"        E.#X}.[.[.[.R.{ z.z.7.2.l.} 4.z.2.l.{ 2.n.6.2.{ O.#.k.k.5.| 2.x.2.2.2.i [.[.[.[.|.E.        ",
"        Y.OX[.[.[.[.!.{ v.v.2.2.z.} z.p.r.B b V n n n J J J H v -.| 2.v.2.2.4.M [.[.[.[.[.E.        ",
"        R.oX[.[.[.[.(...z.z.2.6.z.} 2.x d - s G > * - c z @ - H ` | 2.v.2.2.l.p [.[.[.[.[.!.        ",
"        Y.|.[.[.[.[.^.0.a.u.2.v.l.$.4.j + . * G * . O z s . + c ] | 2.v.2.2.x.M ].[.[.[.'.~.        ",
"        W.[.[.[.[.[.Q.G G B 2.m.x.} 2.j $ . + z * . o f > . + f ' } 2.b.2.2.c.M ].[.].[.[.E.        ",
"        Y.'.[.[.[.[.Q.z z x 6.m.c.$.4.9 $ . + f * . X s ; . + g ' } 4.b.2.7.7.M [.[.[.[.'.R.        ",
"          `.[.[.[.[.Q.d g w x.m.c.] 4.0 * . O s * . X > : . O s ' | 2.v.2.l.2.M [.[.[.[.'.Y.        ",
"          `.[.].[.[.Y.; ; 6 m.x.x.] 4.t = X + > = o * ; ; O = - ' | 2.c.4.z.4.N [.[.[.].`.R.        ",
"          `.[.[.[.[./.3 4 [ x.2.v.' 2.0.+ + * % * = & & 4 5 q r y.5.2.c.2.z.2.D [.[.[.[.[.~.        ",
"          `.[.[.[.[._.r 2.2.2.l.n.` 1.n.y.1.=.6.6.x.2./ l.l.6.2.1.3.2.x.4.z.2.S [.[.[.[.[.~.        ",
"          `.[.[.[.[._.e 2.6.7.N.z.) 1.4.7.2.| 6.6.l.<./ x.l.2.2.| 1.6.p.h.z.<.R [.[.[.[.[.~.        ",
"          `.[.[.[.[.'.w 2.4.m.l.2./ <.l.x.4.} 6.6.l.#./ x.l.2.2.#.1.h.J 9 ;.<.R [.[.[.[.'.~.        ",
"          _.[.].[.[.[.w 2.l.l.2.2.' <.l.6.b.&.l.x.j.#./ x.l.2.2.#.1.z.P 4 h.2.R [.[.[.[.}.~.        ",
"          `.[.[.[.[.[.w 2.v.4.2.z.*.8.7.7.4.*.2.c.c.=./ x.7.6.2.@.2.6.P 7 j.2.E [.[.[.[.'.!.        ",
"          `.[.[.[.[.[.w 4.b.6.2.N...<.4.7.2.` z.z.N.=.) c.2.4.1.=.2.6.b 7 k.2.E [.[.[.[.'.E.        ",
"          `.[.[.[.[.].8 4.b.2.z.v.` 1.4.7.2.} v.b.V.=._ b.2.4.l.#.2.>.< 3 h.2.G.[.[.[.[.'.!.        ",
"          `.[.[.[.[.].7 4.b.2.b.7.{ 2.4.7.1.&.6.n.N.| | n.2.2.n.#.4.5.4 3 :.2.K.[.[.[.[.'.!.        ",
"          `.[.[.[.[.[.7 4.b.2.b.6.@.4.2.7.<.} 6.v.n.} | b.2.6.l.>.2.z.1.k.z.1.K.[.[.[.[.'.          ",
"          '.[.[.[.[.[.6 6.b.2.b.6.#.2.7.7.#.} 7.m.l.| #.b.2.l.2.>.2.z.4.z.z.2.H.[.[.[.[.'.          ",
"          `.[.[.[.[.[.6 2.b.2.b.7.@.2.4.7.#.O.l.N.7.| #.b.2.2.z.@.7.z.6.l.z.2.K.].[.[.[.'.          ",
"          _.'.[.[.[.].6 2.b.2.b.7.@.2.7.7.| @.l.m.2.} >.z.7.4.v.;.b.2.l.2.x.1.s.[.[.[.[.`.          ",
"          _.[.[.[.[.`.7 2.v.2.b.7.| 2.z.7.| @.l.n.2.} ;.7.x.2.z.h.7.7.z.4.z.1.R [.].[.[.`.          ",
"          ~.(.(.).`.E.6 5.v.2.b.l.| 2.b.4.| | l.z.6.| O.7.b.2.7.3.2.v.2.z.2.7.D [.].`.(.Y.          ",
"          _.E.Y.L.F.F G L a.6.x.z.} 2.n.6.O.` l.7.l.@.| 7.v.2.7.>.l.7.7.7.6.j.D W C.D.U.W.          ",
"        +X+X}.[.[.{.F.G z B 2.l.z.| 2.n.2.x.) j.7.l.8.{ 7.v.7.x.%.x.6.b.2.7.| [.oXXX X X|.`.        ",
"        ].[.[.[.[.[.W f g m 6.l.x.| 2.m.l.z._ 6.z.2.2.{ z.v.7.b.] z.7.v.7.7.) ~.].[.[.[.'.(.        ",
"        (.[.[.[.[.[.Y , ; i 2.7.b.| 2.m.z.7._ 4.b.2.2.{ z.v.7.x.{ l.7.l.l.7.) P.[.[.[.[.[.~.        ",
"          U.A.D.L.U.F.% & o.2.6.m.} 6.N.z.7._ 2.m.l.4.$.6.b.7.7.} l.l.7.v.6.` U D.D.A.Z.A.          ",
"    [.OX{._.`.{.XXXXY.1 _ c.6.6.m.} 7.m.l.z._ 2.b.z.z.] 2.b.v.4.| l.l.l.v.4.) L./.Y.^.{. X XoX[.    ",
"    '.}.[.}.[.[.[.[.(.N _ c.j.2.N.] 4.N.5.v.) 1.x.n.v.$.2.b.b.4.| l.7.v.z.6.t.'. XoXoX X[.[.[.].    ",
"    (.[.[.[.[.[.[.[.[.S ~ j.I t n.t.{ M.K y.) #.e.n ;.$.4.f.x 7.} 6.5.I e.6.w.].[.[.[.[.[.[.].(.    ",
"    (.[.[.[.[.[.[.[.'.D 5  .a a  .a 8  .i o.e o.*.9.t.a o.o.a o.e [ o. .q.&.p `.[.[.[.[.[.[.].(.    ",
"    /.].[.[.].].[.'.~.Z.U.Y.Y.Y.Y.Y.Y.Y.Y.Y.Y.Y.Y.Y.W.I.Y.Y.Y.Y.I.U.I.I.L.S.A `.[.[.[.[.[.[.[._.    ",
"                  U.                                                                                ",
"                                                                                                    ",
"                                                                                                    ",
"                                                                                                    "
};
