/* XPM */
static char *f27e6c4cda6f48c083e140209a7d9c85EDnxE2C3GdPWgJHz[] = {
/* columns rows colors chars-per-pixel */
"50 50 183 2 ",
"   c None",
".  c #03030F",
"X  c #060511",
"o  c #080712",
"O  c #0B0914",
"+  c #0F0D18",
"@  c #1D0F17",
"#  c #100E19",
"$  c #100C16",
"%  c #14121D",
"&  c #1D121B",
"*  c #200D15",
"=  c #2C1217",
"-  c #21161F",
";  c #29121A",
":  c #3C1A1D",
">  c #171620",
",  c #181720",
"<  c #1C1A23",
"1  c #2D1D26",
"2  c #25242A",
"3  c #29292F",
"4  c #2C2D32",
"5  c #3D2D33",
"6  c #2D3133",
"7  c #32343A",
"8  c #393D3E",
"9  c #343839",
"0  c #332428",
"q  c #7C0B07",
"w  c #7C0E0A",
"e  c #760B07",
"r  c #7C120D",
"t  c #76120D",
"y  c #7F1711",
"u  c #552E2F",
"i  c #77312C",
"p  c #7C312D",
"a  c #773331",
"s  c #6A302F",
"d  c #383A44",
"f  c #513A41",
"g  c #683F41",
"h  c #44444A",
"j  c #484C4D",
"k  c #434946",
"l  c #4E544E",
"z  c #4C4C52",
"x  c #464C5B",
"c  c #5D4B50",
"v  c #4E5056",
"b  c #545B55",
"n  c #555B5B",
"m  c #535659",
"M  c #7C4847",
"N  c #6E4F55",
"B  c #5B645A",
"V  c #5E6A5B",
"C  c #60685F",
"Z  c #4D5461",
"A  c #555B66",
"S  c #646C63",
"D  c #6A7566",
"F  c #6C7469",
"G  c #657162",
"H  c #717E6D",
"J  c #747D70",
"K  c #800E09",
"L  c #840D08",
"P  c #85130D",
"I  c #8A120C",
"U  c #831A14",
"Y  c #8B1D16",
"T  c #871913",
"R  c #971B13",
"E  c #951912",
"W  c #8D2219",
"Q  c #83221C",
"!  c #93231B",
"~  c #9A281E",
"^  c #9B241B",
"/  c #A9291F",
"(  c #A5261D",
")  c #822F2B",
"_  c #862C26",
"`  c #952C24",
"'  c #9C2B22",
"]  c #8B312A",
"[  c #97332B",
"{  c #9B342A",
"}  c #8C3B35",
"|  c #873B38",
" . c #973B35",
".. c #A22E24",
"X. c #A42F28",
"o. c #A53127",
"O. c #A93127",
"+. c #A53129",
"@. c #AC3429",
"#. c #AD3C2E",
"$. c #B23226",
"%. c #B3372C",
"&. c #B63A2B",
"*. c #BB3D2E",
"=. c #A43B32",
"-. c #AF3F35",
";. c #B13D31",
":. c #BD3F30",
">. c #8D423E",
",. c #96423A",
"<. c #A94137",
"1. c #BE4031",
"2. c #B8463A",
"3. c #C24334",
"4. c #C64638",
"5. c #C4483A",
"6. c #C94A3A",
"7. c #8A4947",
"8. c #B05648",
"9. c #C95447",
"0. c #DE5D4D",
"q. c #D55241",
"w. c #CA5D52",
"e. c #E45D4D",
"r. c #CE6157",
"t. c #CA655B",
"y. c #E6604F",
"u. c #E56252",
"i. c #E86554",
"p. c #E96959",
"a. c #E36758",
"s. c #CC6A61",
"d. c #CA7768",
"f. c #DF7569",
"g. c #E27568",
"h. c #768371",
"j. c #7C8976",
"k. c #7F8B7A",
"l. c #7B8576",
"z. c #828E7D",
"x. c #85927F",
"c. c #AE806E",
"v. c #E78579",
"b. c #858C83",
"n. c #848589",
"m. c #838387",
"M. c #869380",
"N. c #899583",
"B. c #8B9984",
"V. c #8E9B88",
"C. c #899288",
"Z. c #919C87",
"A. c #939D8A",
"S. c #929496",
"D. c #95A28D",
"F. c #99A28E",
"G. c #97A490",
"H. c #99A592",
"J. c #9DAA95",
"K. c #A3AE9B",
"L. c #A5B29C",
"P. c #A9B49F",
"I. c #B2A794",
"U. c #A5AFA0",
"Y. c #ABB6A1",
"T. c #ACB8A2",
"R. c #ABB6A4",
"E. c #B3BDAB",
"W. c #C19282",
"Q. c #C0A18F",
"!. c #B6C1AD",
"~. c #B8C2AF",
"^. c #BBC4B3",
"/. c #BFC9B7",
"(. c #C2CBBA",
"). c #BDC0C2",
"_. c #CBCCCB",
"`. c #C5C7C6",
"'. c #CAD2C3",
"]. c #C7D0C1",
"[. c #D2D9CB",
"{. c #FBFCFB",
"}. c #F2F4F1",
/* pixels */
"                                                                                                    ",
"                                                                                                    ",
"                                                                                                    ",
"                                                P.j.h.E.E.E.T.R.T.!.T.M.k.                          ",
"                              E.^.R.h.D (.(.^.~.~.J.h.P.T.T.R.T.Y.T.T.A.h.!.~.E.^.Y.                ",
"                            (.^.E.^.J.b P.P.T.T.T.D.h.T.T.T.T.T.T.K.T.k.h.Y.T.T.T.D.h.'.T.D.        ",
"        v.g.f.              E.T.Y.T.P.B J.P.T.T.T.D.h.P.P.T.T.T.T.L.K.h.k.Y.T.T.J.B H.T.T./.G.      ",
"    0.a.6.&.&.3.&.5.q.9.r.W.Y.R.Y.T.Y.x.z.P.T.T.T.V.h.T.T.T.T.T.T.T.G.D B.P.T.P.h.H L.T.T.T.J.      ",
"    e.&.&.1.&.3.&.1.3.1.*.3.q.s.Q.T.T.L.V L.T.T.L.F b x.x.x.k.M.z.z.l.k G.L.P.J.D K.T.Y.P.P.A.      ",
"    e.&.&.1.&.1.*.1.4.&.:.3.*.*.5.d.I.J.8 B b 4 + X . . . . . X . . X . + 2 9 9 K.T.T.Y.T.L.V.      ",
"    e.&.&.1.&.3.1.1.6.&.1.3.*.*.1.3.2.@ X . X . . . . . . . . . . . . . . . . X 8 J.Y.Y.J.M.        ",
"    e.&.&.3.&.2.} _ =.$.*.1.1.*.1.3.&.@ . . X X . . X . X . X X X . X X . . . . . 6 G.E.'.[.        ",
"    y.&.&.3.&.#.2 2 3 2 0 u p 8.1.3.*.= X X X X X X X X X X X X X X X X X . X . X 7 (.!.T.(.        ",
"    y.*.&.3.&.#.8 A.9 A h 0 7 ] 1.&.1.= X X X X X X X X X X X X X X o X o X o . X 8 T.P.T.T.        ",
"    y.3.&.1.&.#.z {.h _.m.b b.p 3.&.1.= X X X X X X X O O X X X o o o o o o . o . k T.T.T.Y.        ",
"    u.*.&.1.&.&.z {.j _.m.b C.i 3.*.1.; o o O X O O X O o X O o o o o o o o o o o k T.T.T.T.F.      ",
"    u.*.&.1.&.#.z {.z _.n.m C.i 3.1.,.& o o O o o O O o O O o O O o o o O o O o o j T.T.T.P.F.      ",
"    u.*.1.1.&.1.z {.z `.n.m b.a 3.3.u % O o o O O o o o o o o o o O O o O o o O O j T.T.Y.P.Z.      ",
"    y.*.&.1.&.&.m }.m ).n.n b.| 5.1.u # O o O O O O O O O o O O O O O O O O o o o b T.T.Y.P.B.      ",
"    u.1.&.1.&.1.h A x A Z x Z } 5.1.2 + + O O O O O O O O O + O O O O $ O O O O O b T.T.Y.P.Z.      ",
"    u.*.:.*.&.5.=. .} } } | } 2.4.:.: $ O O O O + O O O O O O O O $ O O O O O O O b T.T.P.T.F.      ",
"    u.5.3.3.3.3.3.3.4.3.3.4.4.4.4.3.{ @ O + O O O O O O + O O O O O O O O O $ O O C T.T.T.T.F.      ",
"    i.w.%.%.@.%.%.%.%.%.%.%.@.O.O.O...@ + + O + $ + O + + + # $ # O # O # # $ O $ C Y.T.T.T.F.      ",
"    p.r.o.' X.O.X.{ @.@. .O.=. .O.M ..@ + + # $ + # + + + $ # # # O # + $ # # # # S T.T.T.T.F.      ",
"    p.t.o.N ] X.` c ' ~ s ` ` ) ..] ' & # # # # + + + + + + + + # # # # # # # # $ S T.T.T.Y.D.      ",
"    p.s.' ) ` +.' Q W ! W W Y T y w Y & # # # # # # # # # # # # # # # # # # # # # S T.T.T.Y.A.      ",
"    p.s.U U U U r r w q w q q L E R ' & # # # # # # # # # # # # # # # # # # # # % S T.T.T.P.        ",
"    u.;.q q w I E R / $.&.:.&.*.1.:.%.1 # # # % # % # % % # % # # % # # # # # % % D T.T.T.T.        ",
"    y.*.*.%.&.*.1.&.3.3.4.4.*.*.:.:.;.& # > # # % % % % % % # % # > # > # % # % # D Y.T.T.R.        ",
"    y.*.1.*.*.*.3.&.3.3.4.*.*.*.*.:.;.& % # % % # # % # # % % % % # % # % % % % % F T.Y.T.P.        ",
"    e.*.3.*.*.1.*.*.3.*.4.*.:.*.&.:.;.< % % > # > % % > % % % % % % > % % % % % % F T.T.T.P.        ",
"    e.*.*.*.&.3.*.&.3.:.3.*.*.*.*.*.#.1 % > > > > > % > > > % % > % > % > > > > % F T.T.T.L.        ",
"    e.3.*.*.*.*.*.*.1.1.3.1.*.*.:.:.;., > > > > > > > % > > > > > % > % > > > > % S T.T.T.L.        ",
"    e.*.*.*.3.1.3.*.*.1.1.3.*.*.:.1.-.1 > > > , > > > > > > > > > > > > > > > > > l A.A.Z.z.        ",
"    e.1.*.1.&.4.*.*.1.3.*.3.*.3.:.1.N d > > , , , , > > > > , > , , > > > > > > > b.U.U.R.R.H.      ",
"    e.*.1.1.*.3.*.3.1.*.:.3.*.3.:.&.f 7 , , , , , , , , < , < > , , , , > < > < > C.T.T.T.R.H.      ",
"    e.&.3.&.3.*.*.3.:.*.:.3.3.3.3.4.a < < < < < < , > < > < < < < , < > < < < < > H R.T.T.R.D.      ",
"    e.*.*.*.4.*.*.3.*.:.:.3.4.3.;.O.i # < < < < < < < < < < < < < < < < > < < < < H K.J.J.F.V.      ",
"    e.3.&.3.3.3.1.3.3.3.3.&.O.O.@. ._ < < < < < < < < < < < < < < < < < < < < < < B z.j.z.V.K.K.    ",
"    e.3.*.3.*.3.4.3.:.@.@.@.=.} ..p [ 2 < < < < < < 1 < < < < < < < < 1 < < < < 2 G.^.E.].^.E.(.D.  ",
"    e.9.3.1.1.@...X...@.7.X.{ ` ..^ ] 4 < < < < < < < < < < < < < < < < < < < < 4 K.T.T.T.T.T.R.V.  ",
"    e.w.%.X...' +.M ' ' ) ..' Y K I ,.4 2 4 3 4 4 4 4 4 4 4 3 3 3 2 3 2 2 2 2 2 4 K.T.T.T.T.P.K.D.  ",
"    u.w...7.[ ' ` s ' ' W P q ~ 8.c.x.k.N.B.B.B.N.B.B.B.B.B.V.B.B.B.B.N.M.M.x.k.S J.T.T.T.T.T.T.F.  ",
"    a.w.' g ] +.' ' Y w I / %.                                                                      ",
"    a.t.' ! W U r L ^ $.%.                                                                          ",
"    a.t.U t e I / %.                                                                                ",
"    0.9.w ( $.                                                                                      ",
"      q.*.*.                                                                                        ",
"                                                                                                    ",
"                                                                                                    "
};
