/* XPM */
static char *_648029529547[] = {
/* columns rows colors chars-per-pixel */
"50 50 205 2 ",
"   c #3A210F",
".  c #2E291C",
"X  c #3C2311",
"o  c #342A1A",
"O  c #3A2C19",
"+  c #3B301B",
"@  c #3D3014",
"#  c #332F26",
"$  c #373229",
"%  c #3B3327",
"&  c #3E3B31",
"*  c #432513",
"=  c #492613",
"-  c #422913",
";  c #4D2A15",
":  c #442B19",
">  c #4B2D1A",
",  c #542C15",
"<  c #5A2D16",
"1  c #542D1A",
"2  c #592E18",
"3  c #44321D",
"4  c #4C331C",
"5  c #4B3A1D",
"6  c #463515",
"7  c #54331B",
"8  c #5C321A",
"9  c #553B1C",
"0  c #583B1E",
"q  c #5F3017",
"w  c #632F16",
"e  c #632F19",
"r  c #653117",
"t  c #6C3316",
"y  c #64341B",
"u  c #6B341A",
"i  c #6B3B1C",
"p  c #623B1C",
"a  c #72361B",
"s  c #733B1D",
"d  c #7A3A1C",
"f  c #733C16",
"g  c #4D3521",
"h  c #493E2C",
"j  c #493823",
"k  c #533B24",
"l  c #5B3D22",
"z  c #423B30",
"x  c #6E3C23",
"c  c #763D21",
"v  c #4E411B",
"b  c #614E1D",
"n  c #6A471B",
"m  c #72451D",
"M  c #7A401C",
"N  c #714F1B",
"B  c #63531F",
"V  c #7A531E",
"C  c #5A4523",
"Z  c #554429",
"A  c #5A462B",
"S  c #5D4A2D",
"D  c #544323",
"F  c #44423C",
"G  c #554A32",
"H  c #694422",
"J  c #644B24",
"K  c #694A23",
"L  c #624D2C",
"P  c #634525",
"I  c #764121",
"U  c #7C4121",
"Y  c #7B4B21",
"T  c #695125",
"R  c #6B512C",
"E  c #69562E",
"W  c #775A2A",
"Q  c #624F31",
"!  c #665234",
"~  c #6B5633",
"^  c #6C5B39",
"/  c #68583A",
"(  c #745C33",
")  c #705D3A",
"_  c #7C6324",
"`  c #79622A",
"'  c #6F613D",
"]  c #76633C",
"[  c #7B653B",
"{  c #7E6A3C",
"}  c #474642",
"|  c #484745",
" . c #4A4946",
".. c #4B4A49",
"X. c #514D45",
"o. c #5B5544",
"O. c #5A5547",
"+. c #605A47",
"@. c #605D52",
"#. c #66624D",
"$. c #7C6A43",
"%. c #7A6E4C",
"&. c #73694B",
"*. c #666250",
"=. c #7C7357",
"-. c #833D1B",
";. c #883E1A",
":. c #85411D",
">. c #8A431C",
",. c #88491A",
"<. c #93461D",
"1. c #954B1E",
"2. c #9A4B1D",
"3. c #98471C",
"4. c #86541C",
"5. c #925918",
"6. c #A24D1D",
"7. c #A9561A",
"8. c #B8591C",
"9. c #93691F",
"0. c #BD6B19",
"q. c #BD6817",
"w. c #834723",
"e. c #8A4C25",
"r. c #944C21",
"t. c #9E4E21",
"y. c #955525",
"u. c #9A5823",
"i. c #A85320",
"p. c #876A2D",
"a. c #946627",
"s. c #887123",
"d. c #967226",
"f. c #97772D",
"g. c #816435",
"h. c #856F32",
"j. c #846D3B",
"k. c #87713D",
"l. c #967E35",
"z. c #9A7A32",
"x. c #927D3B",
"c. c #A1742D",
"v. c #A66925",
"b. c #C77C1C",
"n. c #CE741A",
"m. c #806F49",
"M. c #857346",
"N. c #897445",
"B. c #8E7945",
"V. c #847349",
"C. c #8C7649",
"Z. c #8D794B",
"A. c #937C45",
"S. c #927C4B",
"D. c #867C57",
"F. c #827F63",
"G. c #BB8A1E",
"H. c #9E8837",
"J. c #AF8D2C",
"K. c #A08129",
"L. c #B19631",
"P. c #B78A29",
"I. c #D98416",
"U. c #D98518",
"Y. c #E28B18",
"T. c #C4A32D",
"R. c #C9A432",
"E. c #95804C",
"W. c #99844F",
"Q. c #998543",
"!. c #9B8554",
"~. c #9E8955",
"^. c #9F8B5B",
"/. c #A38D4C",
"(. c #AF9741",
"). c #A38D58",
"_. c #AC965E",
"`. c #A99355",
"'. c #B49D56",
"]. c #B7A047",
"[. c #BFA555",
"{. c #8F8865",
"}. c #958D69",
"|. c #AF9861",
" X c #A19A6B",
".X c #B59E63",
"XX c #BBA465",
"oX c #BDA669",
"OX c #C0AA47",
"+X c #C1A85F",
"@X c #CAB658",
"#X c #D2BC52",
"$X c #C2AB6B",
"%X c #CBB36C",
"&X c #CAB463",
"*X c #CCB573",
"=X c #CFB778",
"-X c #CFB874",
";X c #D4BB75",
":X c #D3BC78",
">X c #D5BC6A",
",X c #DCC24F",
"<X c #AAA084",
"1X c #DCCB90",
"2X c None",
/* pixels */
"2X2X2X2X2X2X2X2X2X2X2X2X2X2X2X2X2X2X2X2X2X2X2X2X2X2X2X2X2X2X2X2X2X2X2X2X2X2X2X2X2X2X2X2X2X2X2X2X2X2X",
"2X2X2X2X2X2X2X2X2X2X2X2X2X2X2X2X2X2X2X2X2X2X2X2X2X2X2X2X2X2X2X2X2X2X2X2X2X2X2X2X2X2X2X2X2X2X2X2X2X2X",
"2X2X2X2X2X2X2X2X2X2X2X2X2X2X2X2X2X2X2X2X2X2X2X2X2X2X2X2X2X2X2X2X2X2X2X2X2X2X2X2X2X2X2X2X2X2X2X2X2X2X",
"2X2X2X2X2X2X2X2X2X2X2X2X2X2X2X2X2X2X2X2X2X2X2X2X2X2X2X2X2X2X2X2X2X2X2X2X2X2X2X2X2X2X2X2X2X2X2X2X2X2X",
"2X2X2X2X2X2X2X2X2X2X2X2X2X2X2X2X2X2X2X2X2X2X2X2X2X2X2X2Xi 2X2X2X2X2X2X2X2X2X2X2X2X2X2X2X2X2X2X2X2X2X",
"2X2X2X2X2X2X2X2X2X2X2X2X2X2X2X2X2X2X2X2X2X2X2X2X2X2X2X2X2.,.2X2X2X2X2X2X2X2X2X2X2X2X2X2X2X2X2X2X2X2X",
"2X2X2X2X2X2X2X2X2X2X2X2X2X2X2X2X2X2X2X2X2X2X2X1 q r d i n.0.2X2X2X2X2X2X2X2X2X2X2X2X2X2X2X2X2X2X2X2X",
"2X2X2X2X2X2X2X2X2X2X2X2X2X2X2X2X2X2X2X2X2X2X1 w -.6.6.,.I.U.4.2X2X2X2X2X2X2X2X2X2X2X2X2X2X2X2X2X2X2X",
"2X2X2X2X2X2X2X2X2X2X2X2X2X2X2X2X2X2X2X2X2X; r a 6.8.:.q.I.I.G.2X2X2X2X2X2X2X2X2X2X2X2X2X2X2X2X2X2X2X",
"2X2X2X2X2X2X2X2X2X2X2X2X2X2X2X2X2X2X2X2X2X2 a d ;.2.,.n.I.7.b.2X2X2X2X2X2X2X2X2X2X2X2X2X2X2X2X2X2X2X",
"2X2X2X2X2X2X2X2X2X2X2X2X2X2X2X2X2X2X2X2X; r d a a s 6.8.n.b.0.2X2X2X2X2X2X2X2X2X2X2X2X2X2X2X2X2X2X2X",
"2X2X2X2X2X2X2X2X2X2X2X2X2X2X2X2X2X2X2X2X; y ; ; 8 m f i.7.7.b.N 2X2X2X2X2X2X2X2X2X2X2X2X2X2X2X2X2X2X",
"2X2X2X2X2X2X2X2X2X2X2X2X2X2X2X2X2X2X2X2X; r 5 R p._ z.J.,.:.5.K Q + $ 2X2X2X2X2X2X2X2X2X2X2X2X2X2X2X",
"2X2X2X2X2X2X2X2X2X2X2X2X2X2X2X2X2X2X2X2X2 < 7 J + . . @ T.T.L.] / $ F o.2X2X2X2XQ.k.2X2X2X2X2X2X2X2X",
"2X2X2X2X2X2X2X2X2X2X2X2X2X2X2X2X2X2X2X2X2 r , Y f._ b B v v + S S &  .o.D 2XQ ] Q.].2X2X2X2X2X2X2X2X",
"2X2X2X2X2X2X2X2X2X2X2X2X2X2X2X2X2X2Xx ,.2 u 8 s 1.V _ R.@ J.p.k % F  .G $.~ M.V.k.OX2X2X2X2X2X2X2X2X",
"2X2X2X2X2X2X2X2X2X2X2X2X2X2X2Xz.p.8 8 :.< e d < ;.8.i.J.5 d.i 2X$ |  .^ N.M.M.V.M.@Xl.2X2X2X2X2X2X2X",
"2X2X2X2X2X2X2X2X2X2X2X2X2X2X2Xy w.2.:.K 1 = < a w w.>.K.b 9.m 2X$ z h $.V.V.M.M.B.#XH.2X2X2X2X2X2X2X",
"2X2X2X2X2X2X2X2X2X2X2X2X2X2X> r d a.d.( 0 * 2 w u e ;.f._ V 2X2Xj # 2X! %.m.M.V.Z.@Xx.2X2X2X2X2X2X2X",
"2X2X2X2X2X2X2X2X2X2X2X2X2X2XX , L ` A.k W = * 1 < < a f.s.6 2X> k 2X2X2XX.o.O.O.O. X$.2X2X2X2X2X2X2X",
"2X2X2X2X2X2X2X2X2X2X2X2X2X2Xk 9 ( %X`.L W 0 = * 1 ; a f.V 2X2X4 9 2X2X2X}  .....*.}.2X2X2X2X2X2X2X2X",
"2X2X2X2X2X2X2X2X2X2X2X2X2X^ C P C.*XS.C.K h.; = X   u W 9 2X2Xg 2X2X2X2X .......=.&.2X2X2X2X2X2X2X2X",
"2X2X2X2X2X2X2X2X2X2X2X2X2X) C.Z..XS..X$X$.W R 7 : : P 3 2X2X2Xg 2X2X2Xz .... .X.=.2X2X2X2X2X2X2X2X2X",
"2X2X2X2X2X2X2X2X2X2X2X2XA M.=X:X$XC.;X%X$XN.! R Z $.@XJ 2X2X2X4 2X2Xo.F } ..*.{.+.2X2X2X2X2X2X2X2X2X",
"2X2X2X2X2X2X2X2X2X2X2X2X~ ).=X:X'.).;X+X;X=X.X^._.>X,X2X2X2X> k 2X%.F.@.#.D. X] 2X2X2X2X2X2X2X2X2X2X",
"2X2X2X2X2X2X2X2X2X2X2X2XN.:X/.[.j.XX;X%X:X;X$X_.-X&Xh.2X2X2X3 l 2X^ =.D.E.%.2X2X2X2X2X2X2X2X2X2X2X2X",
"2X2X2X2X2X2X2X2X2X2X2X2XZ.:X&Xh.) _.XX.X).~.$.~.).] 2X2X2X2Xg l 2X2X2X2X2X2X2X2X2X2X2X2X2X2X2X2X2X2X",
"2X2X2X2X2X2X2X2X2X2X2X2XV.oX:X(.K g.).S.Z.V.Z.W.] ` 2X2X2X2X0 2X2X2X2X2X2X2X2X2X2X2X2X2X2X2X2X2X2X2X",
"2X2X2X2X2X2X2X2X2X2X2X2X] ).-X[.m 4.9.d.c.] <X1XC.l._ 2X2X4 H 2X2X2X2X2X2X2X2X2X2X2X2X2X2X2X2X2X2X2X",
"2X2X2X2X2X2X2X2X2X2X2X2XQ W._.-XE.W 9 n V P =.=.C E.A.A.N.l H 2X2X2X2X2X2X2X2X2X2X2X2X2X2X2X2X2X2X2X",
"2X2X2X2X2X2X2X2X2X2X2X2X2X) XX;X;X;XM.5 Q ! Z k Q A A.E.^ C 9 2X2X2X2X2X2X2X2X2X2X2X2X2X2X2X2X2X2X2X",
"2X2X2X2X2X2X2X2X2X2X2X2X2X2XB.*XoX&X/.[ A Q S Z Z S { Q A N.j.2X2X2X2X2X2X2X2X2X2X2X2X2X2X2X2X2X2X2X",
"2X2X2X2X2X2X2X2X2X2X2X2X2X2X^ _..XoX%XA.3 j 3 3 Z Z Z A j.A.2X2X2X2X2X2X2X2X2X2X2X2X2X2X2X2X2X2X2X2X",
"2X2X2X2X2X2X2X2X2X2X2X2X2X2X2X) |.=XS.^ g 2XO o o + j T A.A.2X2X2X2X2X2X2X2X2X2X2X2X2X2X2X2X2X2X2X2X",
"2X2X2X2X2X2X2X2X2X2X2X2X2X2X2X! B.B.! S C 2X2XO o O m P.k.2X2X2X2X2X2X2X2X2X2X2X2X2X2X2X2X2X2X2X2X2X",
"2X2X2X2X2X2X2X2X2X2X2X2X2X2X2X2X! g > p :.2X2X2X- s y.v.2X2X2X2X2X2X2X2X2X2X2X2X2X2X2X2X2X2X2X2X2X2X",
"2X2X2X2X2X2X2X2X2X2X2X2X2X2X2X2X1 y 3.6.1.2X2X> 2 e.u.e.2X2X2X2X2X2X2X2X2X2X2X2X2X2X2X2X2X2X2X2X2X2X",
"2X2X2X2X2X2X2X2X2X2X2X2X2X2X2X2 a r 2.r.M 2X: 1 y U u.K 2X2X2X2X2X2X2X2X2X2X2X2X2X2X2X2X2X2X2X2X2X2X",
"2X2X2X2X2X2X2X2X2X2X2X2X2X2X2Xy u ;.i.6.2X2X; 2 x U y.2X2X2X2X2X2X2X2X2X2X2X2X2X2X2X2X2X2X2X2X2X2X2X",
"2X2X2X2X2X2X2X2X2X2X2X2X2X2X7 a t ,.2.,.2X2X, 2 y U U 2X2X2X2X2X2X2X2X2X2X2X2X2X2X2X2X2X2X2X2X2X2X2X",
"2X2X2X2X2X2X2X2X2X2X2X2X2X2Xr t :.6.6.i 2X2X2 1 y c s 2X2X2X2X2X2X2X2X2X2X2X2X2X2X2X2X2X2X2X2X2X2X2X",
"2X2X2X2X2X2X2X2X2X2X2X2X2X2Xr a :.3.<.2X2X2X8 2 y I p - 2X2X2X2X2X2X2X2X2X2X2X2X2X2X2X2X2X2X2X2X2X2X",
"2X2X2X2X2X2X2X2X2X2X2X2X2X2X= r d d d i 2X2X- , ; y U w.H 2X2X2X2X2X2X2X2X2X2X2X2X2X2X2X2X2X2X2X2X2X",
"2X2X2X2X2X2X2X2X2X2X2X2X2X2X= ; u >.2.t.s 2X  X * y c U I 2X2X2X2X2X2X2X2X2X2X2X2X2X2X2X2X2X2X2X2X2X",
"2X2X2X2X2X2X2X2X2X2X2X2X2X2Xl 2 a d -.;.x 2XO : > 1 1 1 ; 2X2X2X2X2X2X2X2X2X2X2X2X2X2X2X2X2X2X2X2X2X",
"2X2X2X2X2X2X2X2X2X2X2X2X2X2X2X2X2X2X2X2X2X2X2X2X2X2X2X2X2X2X2X2X2X2X2X2X2X2X2X2X2X2X2X2X2X2X2X2X2X2X",
"2X2X2X2X2X2X2X2X2X2X2X2X2X2X2X2X2X2X2X2X2X2X2X2X2X2X2X2X2X2X2X2X2X2X2X2X2X2X2X2X2X2X2X2X2X2X2X2X2X2X",
"2X2X2X2X2X2X2X2X2X2X2X2X2X2X2X2X2X2X2X2X2X2X2X2X2X2X2X2X2X2X2X2X2X2X2X2X2X2X2X2X2X2X2X2X2X2X2X2X2X2X",
"2X2X2X2X2X2X2X2X2X2X2X2X2X2X2X2X2X2X2X2X2X2X2X2X2X2X2X2X2X2X2X2X2X2X2X2X2X2X2X2X2X2X2X2X2X2X2X2X2X2X",
"2X2X2X2X2X2X2X2X2X2X2X2X2X2X2X2X2X2X2X2X2X2X2X2X2X2X2X2X2X2X2X2X2X2X2X2X2X2X2X2X2X2X2X2X2X2X2X2X2X2X"
};
