/* XPM */
static char *AW4046214_19_3__dragged_1648332038[] = {
/* columns rows colors chars-per-pixel */
"50 50 128 2 ",
"   c None",
".  c #030202",
"X  c #090706",
"o  c #0D0906",
"O  c #080708",
"+  c #0B0A0B",
"@  c #120E0C",
"#  c #1A110B",
"$  c #0F0D11",
"%  c #110F13",
"&  c #131213",
"*  c #17141A",
"=  c #19171D",
"-  c #1C1A1C",
";  c #261A10",
":  c #2B1E13",
">  c #2F2014",
",  c #342416",
"<  c #3E2B1A",
"1  c #1E1B22",
"2  c #211D25",
"3  c #231F28",
"4  c #242324",
"5  c #26212C",
"6  c #29242F",
"7  c #2C2C2C",
"8  c #2A2631",
"9  c #2E2935",
"0  c #2F2A38",
"q  c #312E34",
"w  c #332E3B",
"e  c #343234",
"r  c #36323C",
"t  c #383639",
"y  c #3C3B3C",
"u  c #49321E",
"i  c #4E3620",
"p  c #553B23",
"a  c #55493F",
"s  c #5E4B3A",
"d  c #614328",
"f  c #6D4C2D",
"g  c #775331",
"h  c #3A3544",
"j  c #3F3C43",
"k  c #3E3749",
"l  c #3E3849",
"z  c #433F47",
"x  c #423B4D",
"c  c #453E52",
"v  c #424143",
"b  c #464349",
"n  c #49474A",
"m  c #4D4C4D",
"M  c #504E4F",
"N  c #474054",
"B  c #494256",
"V  c #4D4B51",
"C  c #4D455B",
"Z  c #514F54",
"A  c #525054",
"S  c #585757",
"D  c #56545A",
"F  c #5B595C",
"G  c #615042",
"H  c #75665A",
"J  c #544C64",
"K  c #574F68",
"L  c #584F68",
"P  c #5B526C",
"I  c #5F5671",
"U  c #615F63",
"Y  c #605772",
"T  c #635975",
"R  c #665C79",
"E  c #695E7D",
"W  c #646365",
"Q  c #64636A",
"!  c #69676E",
"~  c #6B6A6B",
"^  c #6A6474",
"/  c #6B6971",
"(  c #6A607F",
")  c #706E72",
"_  c #737274",
"`  c #787777",
"'  c #79777B",
"]  c #7B7B7B",
"[  c #825A36",
"{  c #85776B",
"}  c #827F7C",
"|  c #A48A72",
" . c #6D6382",
".. c #716687",
"X. c #726788",
"o. c #766C8A",
"O. c #7D7B81",
"+. c #7E7590",
"@. c #817F80",
"#. c #857D95",
"$. c #848384",
"%. c #8C8B8C",
"&. c #8E8C91",
"*. c #8F889E",
"=. c #918A9E",
"-. c #939293",
";. c #989798",
":. c #9C9B9C",
">. c #BBA896",
",. c #948CA2",
"<. c #A09EA0",
"1. c #A5A4A5",
"2. c #ABAAAB",
"3. c #AEADB1",
"4. c #B5B4B4",
"5. c #BCBCBC",
"6. c #C1B2A5",
"7. c #C0BFC0",
"8. c #C5C4C5",
"9. c #CBCBCB",
"0. c #D0CFD0",
"q. c #D4D4D4",
"w. c #DEDDDE",
"e. c #E3E3E3",
"r. c #E8E7E8",
"t. c gray92",
"y. c #F5F5F5",
"u. c #FDFDFD",
/* pixels */
"                                                                                                    ",
"                                                                                                    ",
"                                                                                                    ",
"                                    . O .                                                           ",
"                              . $ 0 N J C r +                                                       ",
"                            = C ..X.( ( ....R 6 .                                                   ",
"                        . q  .Y h F ] ] W v c ..k .                                                 ",
"                        5  .J Z 9.y.u.u.u.r.-.h I 5                                                 ",
"                      =  .K _ y.u.u.u.u.u.u.u.e.A K *                                               ",
"                    . P  .V y.u.-.q.u.u.u.u.u.u.r.h P .                                             ",
"                    2 X.l 4.u.~ . X 5.u.u._ - 1.u.%.P =                                             ",
"                  . B X.q y.y.4 . 7 e.u.u.7 . - t.q.r N                                             ",
"                  . P X.v u.u.0.-.t.u.u.u.;.. 4 t.r.w T .                                           ",
"                  . P X.t u.u.u.u.u.u.u.u.u.5.q.u.w.q ..O                                           ",
"                  . C ..q w.u.u.u.u.y.q.u.u.u.u.u.1.C X.+                                           ",
"                    h ..K O.u.u.u.u.) + 9.u.u.u.u.W E ...                                           ",
"                    * X.X.x :.u.u.u.9.%.e.u.u.u.9.z X.Y .                                           ",
"                    . J X...B n 5.u.u.u.u.u.u.8.b ( X.k                                             ",
"                      8 X.X.X.R W 4.9.9.t.1.P l Y X. .&                                             ",
"                      . I X.X.E ] $.4.$.e.M ( X.X.E 3                                               ",
"                        1 ..X. .q 4 e 4 m q X.X...5                                                 ",
"          .             3  .X.X.X.X.X. .E  .X. .8                                                   ",
"          .           + E X.X.E x ..X.X.X.X.R *                                                     ",
"          .           x X.X.X.X.2 J ..X.X.X.r                                                       ",
"                    +  .X.X.X.X.E 3 h  .X...I O                                                     ",
"            .       k X.X.X.X.X.X. .x 5 K ..X.l .                                                   ",
"            .     . R X.X.X.X.X.X.X.X.P = 6 R  .1 .                                                 ",
"            .     $ X.X.X.X.X.X.X.X.X.X.X.J 1 9 5 : X                                             . ",
"            . .   % X.X.X.X.X.X.X.X.X.X.X.X.X.K 8 ; , . .                                         . ",
"              .   O X.X.X.X.X.X.X.X.X.X.X.X.X.X.X.P X 4._ .                                       * ",
"          u.  .   .  .X.X.X.X.X.X.X.X.X.X.X.X.X.X.R - u.4.& +                                   . ~ ",
"              . . . R X...R c X.X.X.X.X.X.X.X.X.X.C * 1.v 9.~                                   & %.",
"            u.  . . I ..X.Y 9 X.X.X.X.X.X.X.X.X...3 c 3 S u.S                                   F M ",
"            u.    . K X.X.T 8 X.X.X.X.X.X.X.X.X.B h X.3 o y < #                               & :.q ",
"              u.  . C .... .3 R  .X.X.X.X.X.X. .1 E I .   . i f @                             A -.t ",
"                u.7 h  .....9 J T K R X.X.X.X.l k X.0       o d f o                         * <.m A ",
"              .   9.^ l c R I * E  .P B C T I * E R +         @ d d X                     & | ^ j F ",
"              .   4 3.*.K 3 k k 8 X.o.o.R c + 3 C k .           o g p .                 X $._ r ! e ",
"                O . B ,.,.o.J 5 O 1 P +.*./ ' ,.^ & . . . . . . . # < # . . . . . . . & W ' q ! Q + ",
"                  + & x X.o.X. .T w & 8 = . 6 #.! 5.u.u.u.y.4.      - s a M $._   & n ;.V e Q / 4   ",
"            O + % J R * 8 T X.X...E = . . . . O .             u.u.u.y.4.6.{ *   - @.3.M D / / b .   ",
"            O 8 J  .X. .w % 9 K J 1           . . . . .               O < g , 8 %.n y F O._ D +     ",
"                . & 3 9 8 * . . . .                     . . . .         7 G | | <.5.3.&./ t +       ",
"                                  . . . . .                       u.u.u.y.t.4.>.H v ! m 1 .         ",
"                                          . . . . . . . . . O e e e y @     . u [ < O .             ",
"                                                      . . . . . . . .         . ; >                 ",
"                                                                                                    ",
"                                                                                                    ",
"                                                                                                    ",
"                                                                                                    "
};
