/* XPM */
static char *AW4046214_19_1__dragged_1648332019[] = {
/* columns rows colors chars-per-pixel */
"50 50 106 2 ",
"   c None",
".  c #040303",
"X  c #080605",
"o  c #0C0806",
"O  c #080608",
"+  c #0B0A0B",
"@  c #140D09",
"#  c #17100A",
"$  c #1A120C",
"%  c #0F0D11",
"&  c #110F13",
"*  c #141316",
"=  c #1B1715",
"-  c #161419",
";  c #19161D",
":  c #1C1B1D",
">  c #24190F",
",  c #251A10",
"<  c #2B1E12",
"1  c #342416",
"2  c #392718",
"3  c #3E2B1A",
"4  c #1E1B23",
"5  c #201D25",
"6  c #231F28",
"7  c #252426",
"8  c #26222C",
"9  c #28252C",
"0  c #2C2B2E",
"q  c #2B2632",
"w  c #2E2A33",
"e  c #302E31",
"r  c #342E3D",
"t  c #353334",
"y  c #38373A",
"u  c #3B3A3C",
"i  c #4E3620",
"p  c #543B23",
"a  c #644529",
"s  c #6A492C",
"d  c #704D2E",
"f  c #775231",
"g  c #7C5633",
"h  c #373241",
"j  c #3A3544",
"k  c #3F3C43",
"l  c #3D3748",
"z  c #3F394A",
"x  c #413F42",
"c  c #423C4D",
"v  c #453E52",
"b  c #444244",
"n  c #4B4A4D",
"m  c #474055",
"M  c #494257",
"N  c #4D4C51",
"B  c #4C455A",
"V  c #50485F",
"C  c #545255",
"Z  c #545359",
"A  c #5C5A5D",
"S  c #534B63",
"D  c #574F68",
"F  c #584F69",
"G  c #5F5D64",
"H  c #5B526C",
"J  c #5F5671",
"K  c #615F61",
"L  c #605773",
"P  c #635A76",
"I  c #665C79",
"U  c #685E7C",
"Y  c #626162",
"T  c #656369",
"R  c #686768",
"E  c #6D6C6D",
"W  c #6B6971",
"Q  c #6B607F",
"!  c #716F71",
"~  c #747474",
"^  c #787779",
"/  c #7B7A7B",
"(  c #805935",
")  c #6D6282",
"_  c #716687",
"`  c #726788",
"'  c #807F81",
"]  c #878587",
"[  c #888687",
"{  c #8D8D8D",
"}  c #908E90",
"|  c #989798",
" . c #9B999A",
".. c #A4A4A4",
"X. c #A8A6A8",
"o. c #ABAAAB",
"O. c #B4B3B3",
"+. c #BABABA",
"@. c #C4C4C4",
"#. c #CCCBCC",
"$. c #D5D5D5",
"%. c #DCDCDC",
"&. c #E2E2E2",
"*. c #EBEBEB",
"=. c #F4F4F4",
"-. c #FDFDFD",
/* pixels */
"                                                                                                    ",
"                                                                                                    ",
"                                                                                                    ",
"                                                    O * 9 8 - O                                     ",
"                                                  ; v Q ` ` ) v ;                                   ",
"                                              O c _ ) B z j c F ) j .                               ",
"                                            + J ) j T O.%.*.$.| n M S %                             ",
"                                          . B ) c O.-.-.-.-.-.-.=.' c M +                           ",
"                          X .             8 ` y O.-.-.-.-.-.-.-.*.-.o.c j .                         ",
"                        . a 2 .         . H H ^ -.-.{ E &.-.-...: b -.E J *                         ",
"                  . + 7 9 3 g >         4 ` h *.-.+.. . / -.-.R . . O.+.M V .                       ",
"              . 7 Z W W W e p g $       M ` Z -.-. .. o #.-.-.$.0 . o.%.c _ +                       ",
"            O k W W W Z Z w = d a .   . H ` Y -.-.=.O.%.-.-.-.-.=.%.-.%.v ` 4                       ",
"          O N W W T y Y ! ' n $ g 1   . L _ Z -.-.-.-.-.-.-.-.-.-.-.-.#.M ` q                       ",
"        . b W G y b [ ] b =     2 g > . S _ u *.-.-.-.-.-.+.C %.-.-.-.{ H ` q                       ",
"        7 R T w  . .t O         . s a . r _ H ^ -.-.-.-.-./ : +.-.-.-.n _ ` 4                       ",
"      % A n u { A +               $ f 2 O I _ c ^ =.-.-.-.-.-.-.-.*.K S _ U O                       ",
"      u n A X.b                     < g @ 9 _ ` H k ! @.-.$.-.$.| j L ` _ q                         ",
"    O Z y o.b .                     O a p . H _ ` ) F Z -.C *./ R ) ` ` S O                         ",
"    7 n Y A                           $ g 2 * U ` ` ` N &.b o.b n I ` U ;                           ",
"    k t [ +                             3 ( O 5 ) ` ` m c c V H I ` ` q .                           ",
"  O w / u                               . a i O S ` ` ` ` ` ` ` ` ` M q M +                         ",
"  + e R .                                 # p o m ` ` ` ` ` ` ` ` ` H ) ` j                         ",
"  + 7 :                                   . n *.t Q ` ` ` ` ` ` ) 8 ` ` ` I .                       ",
"  . * .                                     O.@.t 0 H _ ` ` ` ) h v ` ` ` ` %                       ",
"    O                                       w 7 #.+.@ 9 l J _ B 8 ` ` ` ` ` 4                       ",
"    .                                       w t -.%.+ L v - w 4 J ` ` ` ` ` 4                       ",
"                                            B 8 b t < c _ _ l + M ` ` ` ` ` 4                       ",
"                                          . S ` h > g = I _ ) - 4 I _ _ ` ` &                       ",
"                                          . S ) M + < 4 ) _ _ 8 h l _ _ ` ) .                       ",
"                                            B ` F w M _ ` ` ` q B 4 ` ` ` M                         ",
"                                            M ` I q ` ` ` ` ` h v 8 I ` ) *                         ",
"                                            c ` U 8 ` ` ` ` ` c l v F ` B .                         ",
"                                            h ` ` 6 ) ` ` ` ` M r ` ` I &                           ",
"                                            8 ` U + S ` ` ` ` m h ` ` q +                           ",
"                                            * U r q 8 ` ` ` ` L J ` H 9 6                           ",
"                                              % - ) 6 S ` ` ` ` ` U ; H 4                           ",
"                                                ; ` I - U ` ` ` ) 4 M ` ;                           ",
"                                                - ) ` H 4 6 q 8 4 S ` ) &                           ",
"                                                O I ` ` ` ) P U ) ` ` F .                           ",
"                                                  M ` ` ` ` ` ` ` ` ` w                             ",
"                                                  ; Q ` ` ` ` ` ` ` M O                             ",
"                                                    6 _ ` ` ` ` ` B O                               ",
"                                                    . I ` ` ` _ B O                                 ",
"                                                    . I ` ` F 4 .                                   ",
"                                                    O ; 8 * .                                       ",
"                                                                                                    ",
"                                                                                                    ",
"                                                                                                    ",
"                                                                                                    "
};
