/* XPM */
static char *_b48ce932c4f4cc1b827bf57d65e4bfcYwJ4rJGgm69n9mZm[] = {
/* columns rows colors chars-per-pixel */
"50 50 168 2 ",
"   c #752F0F",
".  c #77310F",
"X  c #762D13",
"o  c #782D15",
"O  c #732E1C",
"+  c #7A2F19",
"@  c #773011",
"#  c #7D3213",
"$  c #7F3C15",
"%  c #76301B",
"&  c #79311A",
"*  c #7E3D19",
"=  c #7F401A",
"-  c #812F16",
";  c #803211",
":  c #8D3515",
">  c #803814",
",  c #82351C",
"<  c #8B3A1B",
"1  c #933715",
"2  c #9B3B16",
"3  c #923C1D",
"4  c #9A3A18",
"5  c #995B0D",
"6  c #9E4015",
"7  c #A74516",
"8  c #A6451D",
"9  c #AA441B",
"0  c #AC481E",
"q  c #B5451B",
"w  c #B34B1E",
"e  c #BB481A",
"r  c #A65014",
"t  c #9E630D",
"y  c #A1670D",
"u  c #A76E0C",
"i  c #B37C0E",
"p  c #A76210",
"a  c #A54620",
"s  c #C44F1E",
"d  c #CB4D1A",
"f  c #C7501A",
"g  c #CF511C",
"h  c #D3541B",
"j  c #D9561E",
"k  c #D85B1C",
"l  c #E2571C",
"z  c #E45A1D",
"x  c #E85C1F",
"c  c #D86F14",
"v  c #CB7112",
"b  c #FE621F",
"n  c #FE691C",
"m  c #E17816",
"M  c #FD731F",
"N  c #FD7E1E",
"B  c #E65C20",
"V  c #E85D20",
"C  c #E36021",
"Z  c #EE6525",
"A  c #F06625",
"S  c #FE6521",
"D  c #FE6B25",
"F  c #E47621",
"G  c #FD7522",
"H  c #FD7B26",
"J  c #FE7B28",
"K  c #BB830B",
"L  c #C9850F",
"P  c #C6930B",
"I  c #CA9609",
"U  c #CD9C0B",
"Y  c #E18610",
"T  c #E4811E",
"R  c #FC8617",
"E  c #FD8917",
"W  c #FC8C1A",
"Q  c #E29616",
"!  c #E39914",
"~  c #FE9B12",
"^  c #FF971F",
"/  c #FD9B1B",
"(  c #D9AC07",
")  c #D9AC09",
"_  c #E2A10D",
"`  c #E3B604",
"'  c #E4B806",
"]  c #E4B708",
"[  c #E3B909",
"{  c #FDB50F",
"}  c #FCBA0B",
"|  c #FDBC08",
" . c #FDBD0B",
".. c #FDBA0D",
"X. c #EDAB10",
"o. c #FDA717",
"O. c #F0AB10",
"+. c #FCAE14",
"@. c #FEAE14",
"#. c #FEAE14",
"$. c #FDB015",
"%. c #E48020",
"&. c #FD8523",
"*. c #FD8823",
"=. c #FB8729",
"-. c #FC872A",
";. c #FE872B",
":. c #FF872B",
">. c #FE872B",
",. c #FF872C",
"<. c #FF882B",
"1. c #FD9420",
"2. c #FD9521",
"3. c #FE9620",
"4. c #FF9620",
"5. c #FF9521",
"6. c #FB962A",
"7. c #FE952B",
"8. c #FE952A",
"9. c #FC972B",
"0. c #FF932D",
"q. c #FD922E",
"w. c #FF932E",
"e. c #FC932D",
"r. c #FF952C",
"t. c #FE952D",
"y. c #FF942E",
"u. c #FE942F",
"i. c #FF932E",
"p. c #FB982C",
"a. c #FE982C",
"s. c #FF9430",
"d. c #EECA04",
"f. c #EFCC08",
"g. c #F0CC05",
"h. c #FDCC06",
"j. c #FDCC07",
"k. c #FCCD07",
"l. c #FECC06",
"z. c #FEC60E",
"x. c #FBCE08",
"c. c #FDCA0C",
"v. c #FFD402",
"b. c #FDD702",
"n. c #FED703",
"m. c #FDD505",
"M. c #FDD605",
"N. c #FDD506",
"B. c #FED605",
"V. c #FED504",
"C. c #FDD901",
"Z. c #FED801",
"A. c #FFD801",
"S. c #FFD901",
"D. c #FDD902",
"F. c #FCD903",
"G. c #FDD903",
"H. c #FDD803",
"J. c #FED802",
"K. c #FED902",
"L. c #FED903",
"P. c #FDDB03",
"I. c #FEDA02",
"U. c #FEDA03",
"Y. c #FFDA02",
"T. c #FDD904",
"R. c #FDD804",
"E. c #FEDB02",
/* pixels */
"& & & & & & & & & & & & & & & & & & & & & & & & & & & & & & & & & & & & & & & & & & & & & & & % # & ",
"& & & & & & & & + & & + & & & & & & & & & & & & & & & & + & & & & & & + & & & & & & & & & & & & & & ",
"& & P ( ( ) ) ) ) ( ( ( ) ) ) ) ) ) ) ) ) k h q % X i ) ) ) ) ) ) ( ( ( ) ) ) ) ) ) ) ) ) k j f & & ",
"% & ' Y.Y.Y.Y.U.F.Y.Y.Y.B.B.U.U.U.U.U.U.U.n b d X X I U.Y.U.U.U.U.F.Y.Y.B.U.U.U.U.U.U.B.F.n S l & & ",
"% & ] Y.b.N.Y.F.Y.Y.F.F.Y.F.Y.Y.U.U.Y.Y.F.n b d o X I Y.Y.b.Y.F.Y.F.Y.F.Y.F.Y.Y.U.Y.F.Y.F.n b l & & ",
"% & ] Y.N.6.8.8.8.8.8.8.e.8.8.8.8.y.8.y.p.S b d o X I F.N.q.y.8.8.y.8.8.8.8.8.8.8.y.8.8.6.S b z & & ",
"# & ] Y.N.q.q.y.y.y.y.y.q.y.y.y.y.y.y.s.q.S b d o o I Y.N.e.q.y.y.y.y.y.q.q.y.y.y.y.y.y.e.S b l & & ",
"# & _  .} ;.;.<.<.<.<.<.<.<.<.<.<.<.<.<.;.S b d o o L | } ;.;.<.<.<.<.<.<.<.<.;.<.<.<.<.;.b b l & & ",
"& & B S b b b b b b b b b b b b b b b b b b b d O o d b b b b b b b b b b b b b b b b b b b b l & & ",
"& & j b b b b b b b b b b b b b b b b b b b b d O X d b b b b b b b b b b b b b b b b S b b b l * & ",
"o o 9 q q q q q q q q q q q q q q q q q q q q 2 o X 4 q q q q q q q q q q q q q q q q q q q q 8 o o ",
"o o X o o o o o o o o o o o o o o o X X X X o o o o O o o o o o o o o o X o o o o o o o o X o o o X ",
"o o # $ $ > > > > > > > > > > > ; > ; ; ; o o o # > > > o ; ; ; > > > > > > > > ; > > > $ # ; , X o ",
"X X P ( ( ( ( ( ( ( ( ( ( ( ( ( ( ) c j j # X 5 ) ( ( ( ( ( ) ) ( ( ( ( ( ( ( ( ) ) ( ) ) k j f X o ",
"X   ` Y.b.b.b.Y.b.b.b.b.b.Y.b.b.Y.Y.R S b # X u Y.Y.b.b.b.Y.Y.Y.b.b.Y.b.Y.b.b.b.Y.b.Y.b.F.n D B X   ",
"  X ` Y.b.h.l.l.h.h.h.h.l.l.h.h.h.c.R S b ; X u b.b.N.l.l.l.l.l.h.h.h.h.h.h.h.h.h.h.h.h.x.D S z X   ",
"    ` b.m.^ ^ 2.1.4.1.1.1.1.1.1.1.1.M S S ; X u b.Y.@.1.1.1.1.1.2.2.^ 2.^ 2.1.1.1.1.1.^ 2.S D B @   ",
"    ` b.V.^ ^ ^ ^ ^ ^ ^ ^ ^ ^ ^ ^ ^ G S S #   u b.b.@.1.^ ^ ^ ^ ^ 4.^ ^ ^ ^ ^ ^ ^ ^ ^ ^ 2.n D z @ X ",
"  X ` b.v.^ 2.^ 4.4.4.4.4.4.4.4.1.1.M S S ; X u b.Y.@.^ 4.4.1.4.4.4.4.4.^ 4.4.4.4.4.4.^ ^ D D V .   ",
"  . ` b.V.^ ^ 2.4.4.4.4.4.4.4.^ 1.1.G S S #   u b.b.@.^ 4.4.4.4.4.4.4.4.1.1.4.4.4.4.4.4.4.S S V . X ",
"  . ` Y.b.^ ^ ^ 4.^ ^ 4.^ 4.4.^ 4.4.G S S # X u U.N.$.4.4.4.4.4.^ 1.4.4.4.4.4.4.4.4.^ ^ 1.D S C @ X ",
"X   m E E G M G G G G G M G G G G G n S S > . r W W R H G G G H G H G G H G G H H G G G G S S z @   ",
"  . l S S S S n S b b S S S b b b S S S S ; X 7 S S S S S S S S S S S S S S S S S S D D D S D C X   ",
"X X h x x x x x V x x x x x x x x x x x x #   2 V V x x Z x Z C x x Z x Z C V x V V V V x V V h X   ",
"  X # # ; # ; ; # # ; ; ; ; # # ; # ; ; # . . @ # # # > > ; ; ; # # > ; ; > # > ; # ; > ; # # @     ",
"  X X @ .   X   @ @     X   @ @   @ X @ X @ X @ X @ @ @   X X   X @     X   @ @ . X @ @ X @ . @ X   ",
"X % t u u u u y 8 7 # X @ y u u u u u u u u u u u u u u u u u p 7 7 > O @ y u u u u u u u u y t   X ",
"& # [ E.Y.Y.Y.{ D D < O * d.E.E.E.E.E.E.E.E.U.E.E.E.E.E.E.E.E.} D D a O = f.E.E.E.E.E.E.E.E.F.d.@   ",
"& & [ U.E.E.E.{ D D 3 O * d.E.F.E.E.E.E.U.U.E.E.E.E.E.U.E.E.E. .D D a O * g.U.U.E.E.E.E.E.E.E.' .   ",
"& & Q $.$.$.$./ G D 3 O * d.E.c.$.$.$.$.$.$.$.$.$.$.$.$.$.$.$./ D D a % = f.Y.N.$.$.$.$.$.$.$.! @   ",
"& & %.5.5.1.1.&.D D 3 O * d.Y.z.5.5.4.4.5.5.5.5.4.5.5.5.5.5.1.*.D D a O * g.E.N.1.5.4.4.5.5.1.T X   ",
"& & %.5.5.1.1.&.D D 3 O * d.Y.z.5.5.5.1.5.5.5.5.5.5.5.5.5.1.1.*.D D 8 o = g.U.c.5.5.5.1.5.1.1.T X   ",
"& & %.1.2.2.8.&.D D 3 O * d.Y.z.5.5.5.2.2.2.2.2.2.2.2.2.5.5.8.&.D D 8 & * g.E.c.1.1.1.5.5.2.8.%.X   ",
"& & %.5.2.2.2.&.D D 3 O * f.Y.z.1.1.8.2.2.8.5.5.8.2.5.<.5.5.2.=.D D a O * f.E.x.5.5.8.5.5.2.1.T @   ",
"& & F *.*.*.*.H D D 3 O * X.{ o.*.&.*.=.=.&.&.*.*.<.*.*.*.*.*.=.D D a O * X...$.*.<.*.*.*.*.=.m X   ",
"o o C D G D D D D D 3 O & Z D D D D D D D D D D D D D D D D D D D D a O , A D D D D D D D D D V @   ",
"o o B D D D D D D D 3 O & Z D D D D D G D D D D D D D D D D D D D D a O & A D D D D D D D D D C @ X ",
"X X 8 w w w w w w a , % & 0 w w w 0 w w w w w 0 w w w w w w w w a w < & , a 0 w w w w w w w w a & # ",
"    X & & & & & & & & & & & & & & & & & & & & & & & & & & & & & & & & & & & & & & & & & % & & & & & ",
"  X & & & & % % & & X & & & & & & & & & & & & # & & & & % & % & & & & & & # & & & % & & & & & % & & ",
"  X U [ ' ' ' ' ' ' [ ' ' ' ' ' ] ' ' ' ] z l e o o K ' ' ] ' ] ' ' ' ' ] ' ' ' [ [ [ [ [ x l g & & ",
"  @ ` Y.Y.Y.Y.Y.Y.E.Y.Y.Y.Y.Y.Y.F.Y.Y.Y.E.n b d o X I b.Y.Y.Y.Y.Y.Y.Y.Y.Y.Y.Y.Y.U.U.U.U.Y.n S l & & ",
"X . ] Y.b.z.z.z.z.z.z.z.z.z.z.z.z.z.z.c.x.S b d o o I Y.Y.z.z.z.z.z.z.z.z.z.z.z.z.c.c.c.z.n b z & & ",
"  . ` Y.b.p.p.y.a.a.a.a.a.a.a.y.a.a.p.p.p.n S d o o I Y.b.6.p.a.a.a.p.p.p.y.a.a.a.a.a.a.8.b b z & & ",
"X X ` F.N.s.q.q.q.q.q.q.y.y.y.q.s.<.s.s.<.b b d O X P b.x.<.s.y.q.q.y.q.q.q.q.q.q.q.q.8.q.b b z & & ",
"    Y ~ ~ G J H J J J J J J J J J J J J J b b d o o v ~ / J J J J J J J J J J J J J H H H b b z & & ",
"X . l b b b S S b S b b b b b b b b b b S S b d o O d S b b b b S b b S b b b b b S b b b b b z & & ",
"  X l b b b b b b b b b S b b S b b b b b b b d o X d b b b b b b b b b b b S b b b b b b b b z o o ",
"    1 4 4 4 4 4 4 4 4 4 4 4 4 4 4 4 1 4 4 4 4 : X X : 4 4 4 1 4 4 4 4 4 4 4 4 4 4 4 4 4 4 4 4 : o o ",
"  X X X X o o o o X X o X X O o o o o o o o o o o X O o X o o o o o o o X o o X o X X O o o X o o o "
};
